Coordinates
version=1
nRows=12
nColumns=24
inDegrees=yes

Units are S.I. units (second, meters, Newtons, ...)
Angles are in degrees.

endheader
time	pelvis_tilt	pelvis_list	pelvis_rotation	pelvis_tx	pelvis_ty	pelvis_tz	hip_flexion_r	hip_adduction_r	hip_rotation_r	knee_angle_r	ankle_angle_r	subtalar_angle_r	mtp_angle_r	hip_flexion_l	hip_adduction_l	hip_rotation_l	knee_angle_l	ankle_angle_l	subtalar_angle_l	mtp_angle_l	lumbar_extension	lumbar_bending	lumbar_rotation
      3.60000000	     -1.28577268	     -0.21721891	     -8.94155163	     -0.89984397	      0.91250680	      0.23896794	    -11.74573811	      4.93753991	     10.42802980	    -22.26345870	     23.76017231	     -4.36354252	      0.00000000	     28.75062382	     -1.70155216	    -11.29390686	    -10.21072827	     12.25484494	     -8.07939570	      0.00000000	    -10.05686197	     -3.43206965	     -5.24114691
      3.60500000	     -1.31080104	     -0.03455166	     -8.88726871	     -0.89151359	      0.91139792	      0.23854070	    -11.86498852	      4.58811364	      9.93593768	    -22.91783584	     23.58305874	     -3.55676626	      0.00000000	     28.98901570	     -1.38778500	    -10.99963811	    -11.15486373	     11.96303496	     -8.20058775	      0.00000000	     -9.92609708	     -3.65546673	     -5.23093030
      3.61000000	     -1.34347395	      0.18250348	     -8.82773766	     -0.88315057	      0.91034836	      0.23813587	    -11.92148719	      4.21150310	      9.40225855	    -23.65371355	     23.29371749	     -2.81352454	      0.00000000	     29.22572196	     -1.03590127	    -10.62139432	    -12.13559686	     11.52925743	     -8.38022360	      0.00000000	     -9.77613940	     -3.92851423	     -5.20604039
      3.61500000	     -1.38817629	      0.44064285	     -8.77125726	     -0.87478803	      0.90933623	      0.23772717	    -11.89779081	      3.79439269	      8.83800144	    -24.49307457	     22.94466755	     -2.07447535	      0.00000000	     29.47634060	     -0.63804548	    -10.15745304	    -13.15239413	     10.95101598	     -8.68671713	      0.00000000	     -9.60586270	     -4.25087926	     -5.19156467
      3.62000000	     -1.44757993	      0.74761600	     -8.68916383	     -0.86641033	      0.90839839	      0.23729756	    -11.80383625	      3.33997669	      8.26365428	    -25.41115256	     22.48991258	     -1.37788061	      0.00000000	     29.74783904	     -0.18072056	     -9.65414044	    -14.19442350	     10.22955935	     -9.04382764	      0.00000000	     -9.41080756	     -4.63138160	     -5.18696518
      3.62500000	     -1.51937245	      1.09561500	     -8.59861802	     -0.85805723	      0.90754237	      0.23686231	    -11.62595245	      2.85018077	      7.67454195	    -26.43203008	     21.93374003	     -0.71241720	      0.00000000	     30.04077068	      0.32254698	     -9.11432229	    -15.25918472	      9.39401247	     -9.49280723	      0.00000000	     -9.19885256	     -5.06137961	     -5.18585606
      3.63000000	     -1.60160823	      1.49054087	     -8.48699622	     -0.84970441	      0.90677665	      0.23642314	    -11.37127093	      2.32633644	      7.09622404	    -27.54999770	     21.25453082	     -0.10904845	      0.00000000	     30.35510732	      0.87870082	     -8.58680611	    -16.34444003	      8.49765099	     -9.99169252	      0.00000000	     -8.96878462	     -5.54857586	     -5.19514739
      3.63500000	     -1.69818686	      1.92003952	     -8.37893985	     -0.84139681	      0.90608731	      0.23600460	    -11.02410503	      1.76693571	      6.50272599	    -28.77470984	     20.47680342	      0.47650895	      0.00000000	     30.69747739	      1.46806119	     -8.03258421	    -17.45765752	      7.55530957	    -10.60042357	      0.00000000	     -8.72077018	     -6.08112291	     -5.21760284
      3.64000000	     -1.79308295	      2.36220733	     -8.26137749	     -0.83313005	      0.90548716	      0.23557160	    -10.60481894	      1.20112279	      5.93555909	    -30.10960883	     19.57051130	      1.00445714	      0.00000000	     31.04877184	      2.07812808	     -7.49248203	    -18.59646392	      6.63671095	    -11.29185081	      0.00000000	     -8.48219957	     -6.63095162	     -5.23299204
      3.64500000	     -1.88754339	      2.81118967	     -8.13708191	     -0.82488869	      0.90497727	      0.23516446	    -10.12013919	      0.63429327	      5.39628884	    -31.53634227	     18.52886777	      1.48246421	      0.00000000	     31.40093316	      2.69606056	     -6.99032510	    -19.74748133	      5.76411399	    -12.03123703	      0.00000000	     -8.24563085	     -7.19194918	     -5.23271293
      3.65000000	     -1.97599031	      3.28166429	     -8.02737517	     -0.81662643	      0.90452776	      0.23481405	     -9.57531923	      0.04998103	      4.91337055	    -33.05516509	     17.36128854	      1.86773046	      0.00000000	     31.73836289	      3.32599895	     -6.54899848	    -20.90039993	      5.01470224	    -12.78984696	      0.00000000	     -8.00492650	     -7.78762705	     -5.24601367
      3.65500000	     -2.05256343	      3.75324768	     -7.92760773	     -0.80837104	      0.90413142	      0.23449758	     -8.97823273	     -0.53195337	      4.48589054	    -34.66132808	     16.08205612	      2.17298202	      0.00000000	     32.04931341	      3.95289440	     -6.16401376	    -22.04298637	      4.40241562	    -13.56681547	      0.00000000	     -7.77857016	     -8.39048575	     -5.24821097
